<svg xmlns="http://www.w3.org/2000/svg" xmlns:xlink="http://www.w3.org/1999/xlink" width="1920" zoomAndPan="magnify" viewBox="0 0 1440 1439.999935" height="1920" preserveAspectRatio="xMidYMid meet" version="1.0"><path fill="#ff914d" d="M 750.480469 75.335938 C 719.3125 49.445312 663.339844 0 654.054688 72.445312 C 649.136719 110.804688 651.246094 149.234375 645.894531 189.746094 C 643.523438 207.652344 631.898438 314.503906 607.53125 310.972656 C 581.660156 307.214844 539.144531 184.421875 514.191406 227.742188 C 504.230469 252.285156 515.101562 293.195312 517.40625 321.734375 C 523.828125 401.097656 522.175781 475.953125 490.207031 550.015625 C 454.84375 630.300781 421.34375 681.550781 373.78125 753.875 C 346.570312 795.261719 299.332031 922.648438 294.15625 972.144531 C 282.6875 1176.738281 364.523438 1340.351562 566.027344 1409.40625 C 665.195312 1439.097656 756.9375 1439.980469 837.054688 1416.292969 C 820.941406 1414.035156 804.652344 1409.898438 788.21875 1404.023438 C 711.410156 1374.347656 663.785156 1304.476562 655.429688 1223.601562 C 654.675781 1212.40625 654.601562 1201.1875 654.898438 1189.976562 C 656.238281 1192.03125 657.6875 1194.011719 659.277344 1195.871094 C 671.925781 1210.714844 691.578125 1226.519531 711.542969 1228.339844 L 716.328125 1228.777344 L 728.949219 1225.144531 L 733.417969 1221.007812 C 746.058594 1209.292969 744.140625 1191.417969 741.222656 1176.226562 C 738.566406 1162.382812 734.5625 1148.429688 730.492188 1134.941406 C 726.355469 1121.230469 721.902344 1107.621094 717.433594 1094.019531 C 714.886719 1086.292969 711.800781 1077.898438 709.765625 1070.035156 C 703.957031 1044.738281 707.582031 1020.707031 710.585938 995.347656 C 719.710938 939.113281 757.246094 866.640625 798.953125 820.019531 C 799.296875 865.171875 819.976562 901.707031 852.714844 933.332031 C 882.953125 962.539062 918.605469 983.578125 952.011719 1008.585938 C 994.066406 1040.054688 1020.828125 1074.21875 1041.804688 1122.308594 C 1058.207031 1163.21875 1065.378906 1203.910156 1061.832031 1241.988281 C 1092.238281 1194.121094 1115.917969 1138.222656 1131.734375 1075.359375 C 1153.433594 975.535156 1156.957031 852.660156 1114.457031 757.78125 C 1087.21875 696.953125 1067.21875 748.742188 1041.328125 776.492188 C 1035.011719 783.269531 1000.699219 819.609375 990.589844 807.433594 C 988.023438 804.328125 1004.109375 694.925781 1005.484375 677.21875 C 1025.195312 423.671875 949.773438 244.761719 756.371094 80.171875 Z M 750.480469 75.335938 " fill-opacity="1" fill-rule="nonzero"/><path fill="#5046e5" d="M 571.34375 350.546875 C 575.125 426.496094 569.214844 498.765625 537.796875 570.792969 C 503.746094 648.863281 463.644531 711.746094 417.171875 782.414062 C 393.640625 818.195312 351.011719 932.828125 345.929688 976.410156 C 336.1875 1157.046875 404.707031 1298.789062 581.890625 1359.929688 C 639.230469 1376.988281 693.4375 1383.414062 743.679688 1380.195312 C 693.09375 1344.425781 662.027344 1287.449219 655.429688 1223.601562 C 654.675781 1212.40625 654.601562 1201.1875 654.898438 1189.976562 C 656.238281 1192.03125 657.6875 1194.011719 659.277344 1195.871094 C 671.925781 1210.714844 691.578125 1226.519531 711.542969 1228.339844 L 716.328125 1228.777344 L 728.949219 1225.144531 L 733.417969 1221.007812 C 746.058594 1209.292969 744.140625 1191.417969 741.222656 1176.226562 C 738.566406 1162.382812 734.5625 1148.429688 730.492188 1134.941406 C 726.355469 1121.230469 721.902344 1107.621094 717.433594 1094.019531 C 714.886719 1086.292969 711.800781 1077.898438 709.765625 1070.035156 C 703.957031 1044.738281 707.582031 1020.707031 710.585938 995.347656 C 719.710938 939.113281 757.246094 866.640625 798.953125 820.019531 C 799.296875 865.171875 819.976562 901.707031 852.714844 933.332031 C 882.953125 962.539062 918.605469 983.578125 952.011719 1008.585938 C 994.066406 1040.054688 1020.828125 1074.21875 1041.804688 1122.308594 C 1045.59375 1131.761719 1048.894531 1141.199219 1051.683594 1150.597656 C 1063.4375 1123.597656 1073.328125 1094.519531 1081.167969 1063.5 C 1097.851562 986.292969 1103.316406 890.78125 1079.3125 811.914062 C 1079.300781 811.921875 1079.300781 811.921875 1079.292969 811.929688 C 1070.082031 821.792969 1060.167969 831.445312 1049.589844 839.8125 C 1019.917969 863.285156 978.675781 874.402344 950.628906 840.601562 C 935.515625 822.371094 937.804688 803.460938 940.007812 782.757812 C 941.484375 768.871094 943.269531 754.992188 945.0625 741.140625 C 947.914062 719.0625 952.003906 695.234375 953.714844 673.191406 C 972.113281 436.519531 903.511719 273.730469 723.082031 120.035156 L 717.554688 115.507812 C 714.46875 112.976562 709.136719 108.460938 703.207031 103.699219 C 701.097656 134.5 701.46875 165.558594 697.371094 196.550781 C 694.125 221.140625 691.011719 245.238281 685.6875 269.527344 C 682.128906 285.757812 677.574219 302.835938 670.558594 317.933594 C 657.558594 345.925781 632.820312 367.128906 600.078125 362.371094 C 589.113281 360.78125 579.671875 356.496094 571.34375 350.546875 Z M 571.34375 350.546875 " fill-opacity="1" fill-rule="evenodd"/><path fill="#ff914d" d="M 608.320312 364.414062 C 612.105469 440.367188 606.195312 512.636719 574.773438 584.664062 C 540.714844 662.734375 500.613281 725.613281 454.136719 796.285156 C 430.617188 832.066406 387.988281 946.699219 382.898438 990.28125 C 373.15625 1170.917969 441.6875 1312.667969 618.871094 1373.808594 C 671.21875 1389.382812 720.957031 1396.074219 767.449219 1394.671875 C 702.851562 1361.1875 663.003906 1296.910156 655.429688 1223.601562 C 654.675781 1212.40625 654.601562 1201.1875 654.898438 1189.976562 C 656.238281 1192.03125 657.6875 1194.011719 659.277344 1195.867188 C 671.925781 1210.714844 691.578125 1226.519531 711.542969 1228.339844 L 716.328125 1228.777344 L 728.949219 1225.144531 L 733.417969 1221.007812 C 746.058594 1209.292969 744.140625 1191.417969 741.222656 1176.226562 C 738.566406 1162.382812 734.5625 1148.429688 730.492188 1134.941406 C 726.355469 1121.230469 721.902344 1107.617188 717.433594 1094.019531 C 714.886719 1086.292969 711.800781 1077.898438 709.765625 1070.035156 C 703.957031 1044.738281 707.582031 1020.707031 710.585938 995.347656 C 719.710938 939.113281 757.246094 866.640625 798.953125 820.019531 C 799.296875 865.171875 819.976562 901.707031 852.714844 933.332031 C 882.953125 962.539062 918.605469 983.578125 952.011719 1008.585938 C 994.066406 1040.054688 1020.828125 1074.21875 1041.804688 1122.308594 C 1054.480469 1153.925781 1061.644531 1185.402344 1062.609375 1215.652344 C 1086.328125 1175.398438 1105.0625 1129.085938 1118.148438 1077.367188 C 1134.820312 1000.164062 1140.292969 904.652344 1116.289062 825.78125 C 1116.28125 825.792969 1116.269531 825.792969 1116.269531 825.800781 C 1107.0625 835.664062 1097.144531 845.3125 1086.558594 853.679688 C 1056.886719 877.152344 1015.652344 888.273438 987.605469 854.472656 C 972.484375 836.242188 974.773438 817.332031 976.984375 796.628906 C 978.460938 782.742188 980.246094 768.859375 982.039062 755.007812 C 984.890625 732.921875 988.980469 709.105469 990.691406 687.0625 C 1009.082031 450.386719 940.488281 287.601562 760.050781 133.902344 L 754.53125 129.375 C 751.445312 126.847656 746.113281 122.328125 740.175781 117.570312 C 738.074219 148.367188 738.4375 179.429688 734.347656 210.421875 C 731.105469 235.011719 727.980469 259.105469 722.65625 283.390625 C 719.105469 299.628906 714.554688 316.707031 707.535156 331.804688 C 694.535156 359.796875 669.796875 381 637.046875 376.242188 C 626.089844 374.652344 616.648438 370.363281 608.320312 364.414062 Z M 608.320312 364.414062 " fill-opacity="1" fill-rule="evenodd"/></svg>